<svg width="24" height="24" viewBox="0 0 24 24" fill="none" xmlns="http://www.w3.org/2000/svg">
<path d="M14.35 17.95C14.07 18.84 13.34 19.57 12.45 19.85C10.94 20.33 9.51 19.62 8.86 18.43C8.51 17.78 9.03 17 9.77 17H9.78C10.12 17 10.46 17.16 10.62 17.46C10.79 17.78 11.12 18 11.51 18C12.06 18 12.51 17.55 12.51 17C12.51 16.45 12.06 16 11.51 16H3C2.45 16 2 15.55 2 15C2 14.45 2.45 14 3 14H11.5C13.46 14 15 15.9 14.35 17.95ZM18.91 5.67001C18.7598 5.04381 18.4394 4.47135 17.984 4.01601C17.5287 3.56066 16.9562 3.24017 16.33 3.09001C14.57 2.69001 12.96 3.62001 12.31 5.07001C12 5.74001 12.48 6.50001 13.21 6.50001C13.6 6.50001 13.96 6.28001 14.11 5.93001C14.2232 5.65451 14.4158 5.41894 14.6634 5.25332C14.9109 5.08769 15.2022 4.99951 15.5 5.00001C16.33 5.00001 17 5.67001 17 6.50001C17 7.33001 16.33 8.00001 15.5 8.00001H3C2.45 8.00001 2 8.45001 2 9.00001C2 9.55001 2.45 10 3 10H15.5C17.7 10 19.43 7.96001 18.91 5.67001ZM18.4 11H3C2.45 11 2 11.45 2 12C2 12.55 2.45 13 3 13H18.5C19.33 13 20 13.67 20 14.5C20.0005 14.7979 19.9123 15.0891 19.7467 15.3367C19.5811 15.5842 19.3455 15.7768 19.07 15.89C18.71 16.04 18.5 16.4 18.5 16.79C18.5 17.52 19.26 18 19.93 17.7C20.6623 17.3722 21.2603 16.8034 21.6242 16.0883C21.9881 15.3732 22.096 14.555 21.93 13.77C21.59 12.13 20.07 11 18.4 11Z" fill="black"/>
</svg>
