<svg width="24" height="24" viewBox="0 0 24 24" fill="none" xmlns="http://www.w3.org/2000/svg">
<path d="M12 18C12.5523 18 13 17.5523 13 17C13 16.4477 12.5523 16 12 16C11.4477 16 11 16.4477 11 17C11 17.5523 11.4477 18 12 18Z" fill="black"/>
<path d="M7 13C7.55228 13 8 12.5523 8 12C8 11.4477 7.55228 11 7 11C6.44772 11 6 11.4477 6 12C6 12.5523 6.44772 13 7 13Z" fill="black"/>
<path d="M17 13C17.5523 13 18 12.5523 18 12C18 11.4477 17.5523 11 17 11C16.4477 11 16 11.4477 16 12C16 12.5523 16.4477 13 17 13Z" fill="black"/>
<path d="M12 3C11.45 3 11 3.45 11 4V6C11 6.55 11.45 7 12 7C12.55 7 13 6.55 13 6V5.08C16.31 5.56 18.87 8.33 19 11.74C19.14 15.59 15.97 18.94 12.12 19C11.1906 19.0165 10.2672 18.8476 9.40375 18.5031C8.54033 18.1587 7.75421 17.6456 7.09133 16.9939C6.42845 16.3422 5.90209 15.5649 5.54302 14.7074C5.18394 13.85 4.99935 12.9296 5.00003 12C5.00003 10.32 5.59003 8.78 6.58003 7.58L11.29 12.3C11.3826 12.3926 11.4925 12.466 11.6135 12.5161C11.7345 12.5662 11.8641 12.592 11.995 12.592C12.126 12.592 12.2556 12.5662 12.3766 12.5161C12.4975 12.466 12.6074 12.3926 12.7 12.3C12.7926 12.2074 12.8661 12.0975 12.9162 11.9765C12.9663 11.8556 12.9921 11.7259 12.9921 11.595C12.9921 11.4641 12.9663 11.3344 12.9162 11.2135C12.8661 11.0925 12.7926 10.9826 12.7 10.89L7.26003 5.46C6.88003 5.08 6.26003 5.07 5.86003 5.44C4.95529 6.27599 4.23394 7.29069 3.74164 8.41988C3.24934 9.54907 2.99681 10.7682 3.00003 12C3.00003 17.04 7.14003 21.12 12.21 21C16.91 20.89 20.84 16.99 20.99 12.29C21.16 7.19 17.07 3 12 3Z" fill="black"/>
</svg>
