<svg width="24" height="24" viewBox="0 0 24 24" fill="none" xmlns="http://www.w3.org/2000/svg">
<path d="M19.07 9.37L19.78 8.66C19.8726 8.56742 19.946 8.45751 19.9961 8.33654C20.0462 8.21558 20.072 8.08593 20.072 7.955C20.072 7.82407 20.0462 7.69442 19.9961 7.57346C19.946 7.45249 19.8726 7.34258 19.78 7.25C19.6874 7.15742 19.5775 7.08398 19.4565 7.03387C19.3356 6.98377 19.2059 6.95798 19.075 6.95798C18.9441 6.95798 18.8144 6.98377 18.6935 7.03387C18.5725 7.08398 18.4626 7.15742 18.37 7.25L17.66 7.96C17.5674 8.05258 17.494 8.16249 17.4439 8.28346C17.3938 8.40442 17.368 8.53407 17.368 8.665C17.368 8.92943 17.473 9.18302 17.66 9.37C17.847 9.55698 18.1006 9.66202 18.365 9.66202C18.4959 9.66202 18.6256 9.63623 18.7465 9.58613C18.8675 9.53602 18.9774 9.46258 19.07 9.37ZM21 18H3C2.45 18 2 18.45 2 19C2 19.55 2.45 20 3 20H21C21.55 20 22 19.55 22 19C22 18.45 21.55 18 21 18ZM12 7C12.56 7 13 6.55 13 6V5C13 4.45 12.55 4 12 4C11.45 4 11 4.45 11 5V6C11 6.55 11.45 7 12 7ZM4.96 9.34C5.05258 9.43258 5.16249 9.50602 5.28346 9.55613C5.40442 9.60623 5.53407 9.63202 5.665 9.63202C5.79593 9.63202 5.92558 9.60623 6.04654 9.55613C6.16751 9.50602 6.27742 9.43258 6.37 9.34C6.46258 9.24742 6.53602 9.13751 6.58613 9.01654C6.63623 8.89558 6.66202 8.76593 6.66202 8.635C6.66202 8.50407 6.63623 8.37442 6.58613 8.25346C6.53602 8.13249 6.46258 8.02258 6.37 7.93L5.66 7.22C5.47302 7.03302 5.21943 6.92798 4.955 6.92798C4.69057 6.92798 4.43698 7.03302 4.25 7.22C4.06302 7.40698 3.95798 7.66057 3.95798 7.925C3.95798 8.05593 3.98377 8.18558 4.03387 8.30654C4.08398 8.42751 4.15742 8.53742 4.25 8.63L4.96 9.34ZM19 16C19 12.13 15.87 9 12 9C8.13 9 5 12.13 5 16H19Z" fill="black"/>
</svg>
