<svg width="24" height="24" viewBox="0 0 24 24" fill="none" xmlns="http://www.w3.org/2000/svg">
<path d="M6.05 4.13999L5.66 3.74999C5.47395 3.56508 5.2223 3.4613 4.96 3.4613C4.6977 3.4613 4.44605 3.56508 4.26 3.74999L4.25 3.75999C4.15736 3.85151 4.08381 3.96051 4.03361 4.08067C3.98341 4.20083 3.95756 4.32976 3.95756 4.45999C3.95756 4.59021 3.98341 4.71914 4.03361 4.8393C4.08381 4.95946 4.15736 5.06846 4.25 5.15999L4.64 5.54999C5.03 5.93999 5.65 5.93999 6.04 5.54999L6.05 5.53999C6.14264 5.44846 6.21619 5.33946 6.26639 5.2193C6.31659 5.09914 6.34244 4.97021 6.34244 4.83999C6.34244 4.70976 6.31659 4.58083 6.26639 4.46067C6.21619 4.34051 6.14264 4.23151 6.05 4.13999ZM3.01 10.5H1.99C1.44 10.5 1 10.94 1 11.49V11.5C1 12.05 1.44 12.49 1.99 12.49H3C3.56 12.5 4 12.06 4 11.51V11.5C4 10.94 3.56 10.5 3.01 10.5ZM12.01 0.549988H12C11.44 0.549988 11 0.989988 11 1.53999V2.49999C11 3.04999 11.44 3.48999 11.99 3.48999H12C12.56 3.49999 13 3.05999 13 2.50999V1.53999C13 0.989988 12.56 0.549988 12.01 0.549988ZM19.75 3.75999C19.36 3.36999 18.73 3.36999 18.34 3.74999L17.95 4.13999C17.8574 4.23151 17.7838 4.34051 17.7336 4.46067C17.6834 4.58083 17.6576 4.70976 17.6576 4.83999C17.6576 4.97021 17.6834 5.09914 17.7336 5.2193C17.7838 5.33946 17.8574 5.44846 17.95 5.53999L17.96 5.54999C18.35 5.93999 18.98 5.93999 19.36 5.54999L19.75 5.15999C19.8426 5.06846 19.9162 4.95946 19.9664 4.8393C20.0166 4.71914 20.0424 4.59021 20.0424 4.45999C20.0424 4.32976 20.0166 4.20083 19.9664 4.08067C19.9162 3.96051 19.8426 3.85151 19.75 3.75999ZM17.94 18.86L18.33 19.25C18.517 19.437 18.7706 19.542 19.035 19.542C19.2994 19.542 19.553 19.437 19.74 19.25C19.927 19.063 20.032 18.8094 20.032 18.545C20.032 18.2806 19.927 18.027 19.74 17.84L19.35 17.45C19.164 17.2651 18.9123 17.1613 18.65 17.1613C18.3877 17.1613 18.136 17.2651 17.95 17.45C17.55 17.85 17.55 18.47 17.94 18.86ZM20 11.49V11.5C20 12.05 20.44 12.49 20.99 12.49H22C22.55 12.49 22.99 12.05 22.99 11.5V11.49C22.99 10.94 22.55 10.5 22 10.5H20.99C20.44 10.5 20 10.94 20 11.49ZM12 5.49999C8.69 5.49999 6 8.18999 6 11.5C6 14.81 8.69 17.5 12 17.5C15.31 17.5 18 14.81 18 11.5C18 8.18999 15.31 5.49999 12 5.49999ZM11.99 22.45H12C12.55 22.45 12.99 22.01 12.99 21.46V20.5C12.99 19.95 12.55 19.51 12 19.51H11.99C11.44 19.51 11 19.95 11 20.5V21.46C11 22.01 11.44 22.45 11.99 22.45ZM4.25 19.24C4.64 19.63 5.27 19.63 5.66 19.24L6.05 18.85C6.23491 18.6639 6.33869 18.4123 6.33869 18.15C6.33869 17.8877 6.23491 17.636 6.05 17.45L6.04 17.44C5.94749 17.3473 5.8376 17.2737 5.71662 17.2236C5.59565 17.1734 5.46597 17.1475 5.335 17.1475C5.20403 17.1475 5.07435 17.1734 4.95338 17.2236C4.8324 17.2737 4.72251 17.3473 4.63 17.44L4.24 17.83C3.86 18.23 3.86 18.85 4.25 19.24Z" fill="black"/>
</svg>
